<svg display="none" xmlns="http://www.w3.org/2000/svg">
    <symbol viewBox="0 0 156 156" id="youtube_icon">
        <path d="M48.5371 18.6818C66.9133 15.6674 89.0865 15.6674 107.463 18.6818C124.159 21.4205 137.096 34.9884 139.571 49.6031C142.567 67.295 142.567 88.7048 139.571 106.397C137.096 121.011 124.159 134.579 107.463 137.318C89.0865 140.332 66.9133 140.332 48.5371 137.318C31.8416 134.579 18.9043 121.011 16.429 106.397C13.4326 88.7048 13.4329 67.295 16.4291 49.6032C18.9041 34.9884 31.8416 21.4205 48.5371 18.6818ZM109.452 2.42307C89.7566 -0.807689 66.2439 -0.807689 46.5479 2.42307C25.1717 5.92953 6.38295 23.5873 2.51224 46.4433C-0.83724 66.2219 -0.837609 89.7779 2.51231 109.556C6.3833 132.413 25.1716 150.07 46.5479 153.577C66.2439 156.808 89.7566 156.808 109.452 153.577C130.829 150.07 149.617 132.413 153.488 109.556C156.837 89.7779 156.837 66.2219 153.488 46.4434C149.617 23.5872 130.829 5.92953 109.452 2.42307ZM67.7514 38.3263C65.5752 36.6466 62.7779 36.4901 60.4722 37.9189C58.1666 39.3476 56.7272 42.1298 56.7272 45.1578L56.7272 110.842C56.7272 113.87 58.1666 116.653 60.4722 118.081C62.7779 119.51 65.5752 119.353 67.7514 117.674L110.297 84.8318C112.27 83.3088 113.454 80.7455 113.454 77.9999C113.454 75.2543 112.27 72.691 110.297 71.1679L67.7514 38.3263ZM93.58 77.9999L70.909 95.5006L70.909 60.4993L93.58 77.9999Z"
              fill-rule="evenodd"/>
    </symbol>
    <symbol viewBox="0 0 156 156" id="linkedin_icon">
        <path d="M31.2 0C13.9687 0 0 13.9687 0 31.2L0 124.8C0 142.031 13.9687 156 31.2 156L124.8 156C142.031 156 156 142.031 156 124.8L156 31.2C156 13.9687 142.031 0 124.8 0L31.2 0ZM15.6 31.2C15.6 22.5844 22.5844 15.6 31.2 15.6L124.8 15.6C133.416 15.6 140.4 22.5844 140.4 31.2L140.4 124.8C140.4 133.416 133.416 140.4 124.8 140.4L31.2 140.4C22.5844 140.4 15.6 133.416 15.6 124.8L15.6 31.2ZM54.6 70.2C54.6 65.8921 51.1078 62.4 46.8 62.4C42.4922 62.4 39 65.8921 39 70.2L39 117C39 121.308 42.4922 124.8 46.8 124.8C51.1078 124.8 54.6 121.308 54.6 117L54.6 70.2ZM58.5 42.9C58.5 49.3618 53.2618 54.6 46.8 54.6C40.3382 54.6 35.1 49.3618 35.1 42.9C35.1 36.4382 40.3382 31.2 46.8 31.2C53.2618 31.2 58.5 36.4382 58.5 42.9ZM78 62.4C80.6481 62.4 82.9881 63.7198 84.3983 65.7376C88.3966 63.5716 92.8481 62.4 97.5 62.4C114.343 62.4 124.8 77.4212 124.8 90.2569L124.8 90.3162L124.8 90.3747L124.8 90.434L124.8 90.4933L124.8 90.5525L124.8 90.6126L124.8 90.6719L124.8 90.7319L124.8 90.792L124.8 90.8521L124.8 90.9129L124.8 90.973L124.8 91.0338L124.8 91.0946L124.8 91.1555L124.8 91.2163L124.8 91.2772L124.8 91.3388L124.8 91.4004L124.8 91.4612L124.8 91.5236L124.8 91.5853L124.8 91.6469L124.8 91.7093L124.8 91.7709L124.8 91.8333L124.8 91.8957L124.8 91.9589L124.8 92.0213L124.8 92.0845L124.8 92.1469L124.8 92.21L124.8 92.2732L124.8 92.3364L124.8 92.4004L124.8 92.4635L124.8 92.5275L124.8 92.5907L124.8 92.6546L124.8 92.7186L124.8 92.7833L124.8 92.8473L124.8 92.9113L124.8 92.976L124.8 93.0407L124.8 93.1047L124.8 93.1694L124.8 93.235L124.8 93.2997L124.8 93.3644L124.8 93.43L124.8 93.4955L124.8 93.5602L124.8 93.6257L124.8 93.6913L124.8 93.7568L124.8 93.8231L124.8 93.8886L124.8 93.9549L124.8 94.0204L124.8 94.0867L124.8 94.153L124.8 94.2193L124.8 94.2856L124.8 94.3519L124.8 94.4182L124.8 94.4853L124.8 94.5516L124.8 94.6187L124.8 94.6858L124.8 94.7528L124.8 94.8191L124.8 94.887L124.8 94.9541L124.8 95.0212L124.8 95.0882L124.8 95.1561L124.8 95.2232L124.8 95.291L124.8 95.3581L124.8 95.426L124.8 95.4938L124.8 95.5617L124.8 95.6296L124.8 95.6974L124.8 95.7653L124.8 95.8339L124.8 95.9018L124.8 95.9704L124.8 96.0383L124.8 96.1069L124.8 96.1748L124.8 96.2434L124.8 96.3121L124.8 96.3807L124.8 96.4493L124.8 96.518L124.8 96.5866L124.8 96.6553L124.8 96.7239L124.8 96.7925L124.8 96.862L124.8 96.9306L124.8 97L124.8 97.0687L124.8 97.1381L124.8 97.2067L124.8 97.2761L124.8 97.3456L124.8 97.415L124.8 97.4836L124.8 97.553L124.8 97.6225L124.8 97.6919L124.8 97.7613L124.8 97.8307L124.8 97.9001L124.8 97.9696L124.8 98.0398L124.8 98.1092L124.8 98.1786L124.8 98.248L124.8 98.3182L124.8 98.3876L124.8 98.4571L124.8 98.5273L124.8 98.5967L124.8 98.6669L124.8 98.7363L124.8 98.8057L124.8 98.8759L124.8 98.9461L124.8 99.0155L124.8 99.0857L124.8 99.1552L124.8 99.2254L124.8 99.2956L124.8 99.365L124.8 99.4352L124.8 99.5046L124.8 99.5748L124.8 99.645L124.8 99.7144L124.8 99.7846L124.8 99.8548L124.8 99.9242L124.8 99.9944L124.8 100.065L124.8 100.135L124.8 100.204L124.8 100.274L124.8 100.345L124.8 100.414L124.8 100.484L124.8 100.554L124.8 100.624L124.8 100.694L124.8 100.764L124.8 100.834L124.8 100.903L124.8 100.973L124.8 101.044L124.8 101.113L124.8 101.183L124.8 101.253L124.8 101.322L124.8 101.392L124.8 101.462L124.8 101.532L124.8 101.601L124.8 101.671L124.8 101.74L124.8 101.81L124.8 101.88L124.8 101.949L124.8 102.019L124.8 102.088L124.8 102.157L124.8 102.227L124.8 102.296L124.8 102.366L124.8 102.435L124.8 102.504L124.8 102.573L124.8 102.643L124.8 102.712L124.8 102.781L124.8 102.85L124.8 102.919L124.8 102.988L124.8 103.057L124.8 103.126L124.8 103.195L124.8 103.263L124.8 103.332L124.8 103.401L124.8 103.469L124.8 103.538L124.8 103.607L124.8 103.675L124.8 103.744L124.8 103.812L124.8 103.88L124.8 103.948L124.8 104.017L124.8 104.085L124.8 104.153L124.8 104.22L124.8 104.288L124.8 104.356L124.8 104.424L124.8 104.492L124.8 104.56L124.8 104.628L124.8 104.695L124.8 104.763L124.8 104.83L124.8 104.897L124.8 104.965L124.8 105.032L124.8 105.099L124.8 105.165L124.8 105.232L124.8 105.299L124.8 105.366L124.8 105.433L124.8 105.499L124.8 105.566L124.8 105.632L124.8 105.699L124.8 105.765L124.8 105.831L124.8 105.897L124.8 105.963L124.8 106.029L124.8 106.095L124.8 106.16L124.8 106.226L124.8 106.291L124.8 106.357L124.8 106.422L124.8 106.487L124.8 106.553L124.8 106.617L124.8 106.682L124.8 106.747L124.8 106.812L124.8 106.876L124.8 106.941L124.8 107.005L124.8 107.07L124.8 107.134L124.8 107.198L124.8 107.262L124.8 107.326L124.8 107.39L124.8 107.453L124.8 107.517L124.8 107.58L124.8 107.643L124.8 107.706L124.8 107.769L124.8 107.832L124.8 107.895L124.8 107.957L124.8 108.02L124.8 108.082L124.8 108.145L124.8 108.207L124.8 108.269L124.8 108.33L124.8 108.393L124.8 108.454L124.8 108.515L124.8 108.577L124.8 108.638L124.8 108.699L124.8 108.76L124.8 108.821L124.8 108.882L124.8 108.942L124.8 109.003L124.8 109.063L124.8 109.123L124.8 109.183L124.8 109.243L124.8 109.302L124.8 109.362L124.8 109.422L124.8 109.481L124.8 109.539L124.8 109.599L124.8 109.657L124.8 109.716L124.8 109.774L124.8 109.833L124.8 109.891L124.8 109.949L124.8 110.007L124.8 110.064L124.8 110.122L124.8 110.179L124.8 110.237L124.8 110.294L124.8 110.35L124.8 110.407L124.8 110.464L124.8 110.52L124.8 110.576L124.8 110.632L124.8 110.688L124.8 110.744L124.8 110.799L124.8 110.854L124.8 110.91L124.8 110.964L124.8 111.019L124.8 111.074L124.8 111.128L124.8 111.183L124.8 111.237L124.8 111.29L124.8 111.344L124.8 111.398L124.8 111.451L124.8 111.504L124.8 111.557L124.8 111.61L124.8 111.662L124.8 111.715L124.8 111.767L124.8 111.819L124.8 111.872L124.8 111.923L124.8 111.974L124.8 112.025L124.8 112.077L124.8 112.127L124.8 112.178L124.8 112.228L124.8 112.279L124.8 112.329L124.8 112.378L124.8 112.428L124.8 112.478L124.8 112.527L124.8 112.576L124.8 112.624L124.8 112.673L124.8 112.721L124.8 112.769L124.8 112.818L124.8 112.865L124.8 112.913L124.8 112.96L124.8 113.007L124.8 113.054L124.8 113.1L124.8 113.147L124.8 113.193L124.8 113.239L124.8 113.285L124.8 113.33L124.8 113.375L124.8 113.421L124.8 113.465L124.8 113.509L124.8 113.554L124.8 113.598L124.8 113.642L124.8 113.686L124.8 113.729L124.8 113.772L124.8 113.815L124.8 113.858L124.8 113.9L124.8 113.943L124.8 113.985L124.8 114.027L124.8 114.068L124.8 114.109L124.8 114.151L124.8 114.191L124.8 114.232L124.8 114.272L124.8 114.312L124.8 114.352L124.8 114.392L124.8 114.431L124.8 114.47L124.8 114.509L124.8 114.547L124.8 114.585L124.8 114.623L124.8 114.661L124.8 114.698L124.8 114.736L124.8 114.772L124.8 114.809L124.8 114.846L124.8 114.882L124.8 114.917L124.8 114.953L124.8 114.988L124.8 115.023L124.8 115.059L124.8 115.093L124.8 115.127L124.8 115.162L124.8 115.195L124.8 115.229L124.8 115.261L124.8 115.294L124.8 115.327L124.8 115.36L124.8 115.392L124.8 115.423L124.8 115.455L124.8 115.486L124.8 115.516L124.8 115.548L124.8 115.578L124.8 115.608L124.8 115.637L124.8 115.667L124.8 115.696L124.8 115.725L124.8 115.754L124.8 115.782L124.8 115.81L124.8 115.838L124.8 115.865L124.8 115.892L124.8 115.919L124.8 115.945L124.8 115.972L124.8 115.998L124.8 116.023L124.8 116.048L124.8 116.073L124.8 116.098L124.8 116.123L124.8 116.147L124.8 116.17L124.8 116.193L124.8 116.217L124.8 116.24L124.8 116.262L124.8 116.285L124.8 116.307L124.8 116.328L124.8 116.349L124.8 116.37L124.8 116.391L124.8 116.411L124.8 116.431L124.8 116.45L124.8 116.47L124.8 116.488L124.8 116.507L124.8 116.526L124.8 116.544L124.8 116.562L124.8 116.579L124.8 116.595L124.8 116.612L124.8 116.629L124.8 116.644L124.8 116.66L124.8 116.676L124.8 116.69L124.8 116.705L124.8 116.719L124.8 116.733L124.8 116.747L124.8 116.761L124.8 116.773L124.8 116.785L124.8 116.798L124.8 116.81L124.8 116.821L124.8 116.832L124.8 116.843L124.8 116.854L124.8 116.864L124.8 116.874L124.8 116.883L124.8 116.892L124.8 116.901L124.8 116.91L124.8 116.917L124.8 116.932L124.8 116.945L124.8 116.958L124.8 116.968L124.8 116.977L124.8 116.988L124.8 116.997C124.8 121.305 121.308 124.8 117 124.8C112.692 124.8 109.2 121.308 109.2 117L109.2 116.991L109.2 116.981L109.2 116.973L109.2 116.963L109.2 116.952L109.2 116.939L109.2 116.925L109.2 116.91L109.2 116.901L109.2 116.892L109.2 116.883L109.2 116.874L109.2 116.864L109.2 116.854L109.2 116.843L109.2 116.832L109.2 116.821L109.2 116.81L109.2 116.798L109.2 116.785L109.2 116.773L109.2 116.761L109.2 116.747L109.2 116.733L109.2 116.719L109.2 116.705L109.2 116.69L109.2 116.676L109.2 116.66L109.2 116.644L109.2 116.629L109.2 116.612L109.2 116.595L109.2 116.579L109.2 116.562L109.2 116.544L109.2 116.526L109.2 116.507L109.2 116.488L109.2 116.47L109.2 116.45L109.2 116.431L109.2 116.411L109.2 116.391L109.2 116.37L109.2 116.349L109.2 116.328L109.2 116.307L109.2 116.285L109.2 116.262L109.2 116.24L109.2 116.217L109.2 116.193L109.2 116.17L109.2 116.147L109.2 116.123L109.2 116.098L109.2 116.073L109.2 116.048L109.2 116.023L109.2 115.998L109.2 115.972L109.2 115.945L109.2 115.919L109.2 115.892L109.2 115.865L109.2 115.838L109.2 115.81L109.2 115.782L109.2 115.754L109.2 115.725L109.2 115.696L109.2 115.667L109.2 115.637L109.2 115.608L109.2 115.578L109.2 115.548L109.2 115.516L109.2 115.486L109.2 115.455L109.2 115.423L109.2 115.392L109.2 115.36L109.2 115.327L109.2 115.294L109.2 115.261L109.2 115.229L109.2 115.195L109.2 115.162L109.2 115.127L109.2 115.093L109.2 115.059L109.2 115.023L109.2 114.988L109.2 114.953L109.2 114.917L109.2 114.882L109.2 114.846L109.2 114.809L109.2 114.772L109.2 114.736L109.2 114.698L109.2 114.661L109.2 114.623L109.2 114.585L109.2 114.547L109.2 114.509L109.2 114.47L109.2 114.431L109.2 114.392L109.2 114.352L109.2 114.312L109.2 114.272L109.2 114.232L109.2 114.191L109.2 114.151L109.2 114.109L109.2 114.068L109.2 114.027L109.2 113.985L109.2 113.943L109.2 113.9L109.2 113.858L109.2 113.815L109.2 113.772L109.2 113.729L109.2 113.686L109.2 113.642L109.2 113.598L109.2 113.554L109.2 113.509L109.2 113.465L109.2 113.421L109.2 113.375L109.2 113.33L109.2 113.285L109.2 113.239L109.2 113.193L109.2 113.147L109.2 113.1L109.2 113.054L109.2 113.007L109.2 112.96L109.2 112.913L109.2 112.865L109.2 112.818L109.2 112.769L109.2 112.721L109.2 112.673L109.2 112.624L109.2 112.576L109.2 112.527L109.2 112.478L109.2 112.428L109.2 112.378L109.2 112.329L109.2 112.279L109.2 112.228L109.2 112.178L109.2 112.127L109.2 112.077L109.2 112.025L109.2 111.974L109.2 111.923L109.2 111.872L109.2 111.819L109.2 111.767L109.2 111.715L109.2 111.662L109.2 111.61L109.2 111.557L109.2 111.504L109.2 111.451L109.2 111.398L109.2 111.344L109.2 111.29L109.2 111.237L109.2 111.183L109.2 111.128L109.2 111.074L109.2 111.019L109.2 110.964L109.2 110.91L109.2 110.854L109.2 110.799L109.2 110.744L109.2 110.688L109.2 110.632L109.2 110.576L109.2 110.52L109.2 110.464L109.2 110.407L109.2 110.35L109.2 110.294L109.2 110.237L109.2 110.179L109.2 110.122L109.2 110.064L109.2 110.007L109.2 109.949L109.2 109.891L109.2 109.833L109.2 109.774L109.2 109.716L109.2 109.657L109.2 109.599L109.2 109.539L109.2 109.481L109.2 109.422L109.2 109.362L109.2 109.302L109.2 109.243L109.2 109.183L109.2 109.123L109.2 109.063L109.2 109.003L109.2 108.942L109.2 108.882L109.2 108.821L109.2 108.76L109.2 108.699L109.2 108.638L109.2 108.577L109.2 108.515L109.2 108.454L109.2 108.393L109.2 108.33L109.2 108.269L109.2 108.207L109.2 108.145L109.2 108.082L109.2 108.02L109.2 107.957L109.2 107.895L109.2 107.832L109.2 107.769L109.2 107.706L109.2 107.643L109.2 107.58L109.2 107.517L109.2 107.453L109.2 107.39L109.2 107.326L109.2 107.262L109.2 107.198L109.2 107.134L109.2 107.07L109.2 107.005L109.2 106.941L109.2 106.876L109.2 106.812L109.2 106.747L109.2 106.682L109.2 106.617L109.2 106.553L109.2 106.487L109.2 106.422L109.2 106.357L109.2 106.291L109.2 106.226L109.2 106.16L109.2 106.095L109.2 106.029L109.2 105.963L109.2 105.897L109.2 105.831L109.2 105.765L109.2 105.699L109.2 105.632L109.2 105.566L109.2 105.499L109.2 105.433L109.2 105.366L109.2 105.299L109.2 105.232L109.2 105.165L109.2 105.099L109.2 105.032L109.2 104.965L109.2 104.897L109.2 104.83L109.2 104.763L109.2 104.695L109.2 104.628L109.2 104.56L109.2 104.492L109.2 104.424L109.2 104.356L109.2 104.288L109.2 104.22L109.2 104.153L109.2 104.085L109.2 104.017L109.2 103.948L109.2 103.88L109.2 103.812L109.2 103.744L109.2 103.675L109.2 103.607L109.2 103.538L109.2 103.469L109.2 103.401L109.2 103.332L109.2 103.263L109.2 103.195L109.2 103.126L109.2 103.057L109.2 102.988L109.2 102.919L109.2 102.85L109.2 102.781L109.2 102.712L109.2 102.643L109.2 102.573L109.2 102.504L109.2 102.435L109.2 102.366L109.2 102.296L109.2 102.227L109.2 102.157L109.2 102.088L109.2 102.019L109.2 101.949L109.2 101.88L109.2 101.81L109.2 101.74L109.2 101.671L109.2 101.601L109.2 101.532L109.2 101.462L109.2 101.392L109.2 101.322L109.2 101.253L109.2 101.183L109.2 101.113L109.2 101.044L109.2 100.973L109.2 100.903L109.2 100.834L109.2 100.764L109.2 100.694L109.2 100.624L109.2 100.554L109.2 100.484L109.2 100.414L109.2 100.345L109.2 100.274L109.2 100.204L109.2 100.135L109.2 100.065L109.2 99.9944L109.2 99.9242L109.2 99.8548L109.2 99.7846L109.2 99.7144L109.2 99.645L109.2 99.5748L109.2 99.5046L109.2 99.4352L109.2 99.365L109.2 99.2956L109.2 99.2254L109.2 99.1552L109.2 99.0857L109.2 99.0155L109.2 98.9461L109.2 98.8759L109.2 98.8057L109.2 98.7363L109.2 98.6669L109.2 98.5967L109.2 98.5273L109.2 98.4571L109.2 98.3876L109.2 98.3182L109.2 98.248L109.2 98.1786L109.2 98.1092L109.2 98.0398L109.2 97.9696L109.2 97.9001L109.2 97.8307L109.2 97.7613L109.2 97.6919L109.2 97.6225L109.2 97.553L109.2 97.4836L109.2 97.415L109.2 97.3456L109.2 97.2761L109.2 97.2067L109.2 97.1381L109.2 97.0687L109.2 97L109.2 96.9306L109.2 96.862L109.2 96.7925L109.2 96.7239L109.2 96.6553L109.2 96.5866L109.2 96.518L109.2 96.4493L109.2 96.3807L109.2 96.3121L109.2 96.2434L109.2 96.1748L109.2 96.1069L109.2 96.0383L109.2 95.9704L109.2 95.9018L109.2 95.8339L109.2 95.7653L109.2 95.6974L109.2 95.6296L109.2 95.5617L109.2 95.4938L109.2 95.426L109.2 95.3581L109.2 95.291L109.2 95.2232L109.2 95.1561L109.2 95.0882L109.2 95.0212L109.2 94.9541L109.2 94.887L109.2 94.8191L109.2 94.7528L109.2 94.6858L109.2 94.6187L109.2 94.5516L109.2 94.4853L109.2 94.4182L109.2 94.3519L109.2 94.2856L109.2 94.2193L109.2 94.153L109.2 94.0867L109.2 94.0204L109.2 93.9549L109.2 93.8886L109.2 93.8231L109.2 93.7568L109.2 93.6913L109.2 93.6257L109.2 93.5602L109.2 93.4955L109.2 93.43L109.2 93.3644L109.2 93.2997L109.2 93.235L109.2 93.1694L109.2 93.1047L109.2 93.0407L109.2 92.976L109.2 92.9113L109.2 92.8473L109.2 92.7833L109.2 92.7186L109.2 92.6546L109.2 92.5907L109.2 92.5275L109.2 92.4635L109.2 92.4004L109.2 92.3364L109.2 92.2732L109.2 92.21L109.2 92.1469L109.2 92.0845L109.2 92.0213L109.2 91.9589L109.2 91.8957L109.2 91.8333L109.2 91.7709L109.2 91.7093L109.2 91.6469L109.2 91.5853L109.2 91.5236L109.2 91.4612L109.2 91.4004L109.2 91.3388L109.2 91.2772L109.2 91.2163L109.2 91.1555L109.2 91.0946L109.2 91.0338L109.2 90.973L109.2 90.9129L109.2 90.8521L109.2 90.792L109.2 90.7319L109.2 90.6719L109.2 90.6126L109.2 90.5525L109.2 90.4933L109.2 90.434L109.2 90.3747L109.2 90.3162L109.2 90.2569C109.2 84.265 104.057 78 97.5 78C93.412 78 88.8997 80.2222 85.8 85.5122L85.8 85.5332L85.8 85.6136L85.8 85.6939L85.8 85.7743L85.8 85.8554L85.8 85.9357L85.8 86.0168L85.8 86.098L85.8 86.1799L85.8 86.261L85.8 86.3421L85.8 86.424L85.8 86.5059L85.8 86.5878L85.8 86.6697L85.8 86.7516L85.8 86.8343L85.8 86.917L85.8 86.9989L85.8 87.0815L85.8 87.1642L85.8 87.2469L85.8 87.3304L85.8 87.413L85.8 87.4965L85.8 87.58L85.8 87.6626L85.8 87.7469L85.8 87.8303L85.8 87.9138L85.8 87.9973L85.8 88.0815L85.8 88.1657L85.8 88.2492L85.8 88.3334L85.8 88.4177L85.8 88.5019L85.8 88.5869L85.8 88.6712L85.8 88.7562L85.8 88.8404L85.8 88.9255L85.8 89.0105L85.8 89.0955L85.8 89.1805L85.8 89.2655L85.8 89.3506L85.8 89.4364L85.8 89.5214L85.8 89.6072L85.8 89.6922L85.8 89.778L85.8 89.8638L85.8 89.9496L85.8 90.0354L85.8 90.1212L85.8 90.207L85.8 90.2936L85.8 90.3794L85.8 90.4652L85.8 90.5518L85.8 90.6383L85.8 90.7241L85.8 90.8107L85.8 90.8973L85.8 90.9839L85.8 91.0705L85.8 91.157L85.8 91.2436L85.8 91.3302L85.8 91.4176L85.8 91.5041L85.8 91.5907L85.8 91.6781L85.8 91.7647L85.8 91.852L85.8 91.9394L85.8 92.026L85.8 92.1133L85.8 92.2007L85.8 92.288L85.8 92.3746L85.8 92.462L85.8 92.5493L85.8 92.6367L85.8 92.7248L85.8 92.8122L85.8 92.8996L85.8 92.9869L85.8 93.0743L85.8 93.1616L85.8 93.2498L85.8 93.3371L85.8 93.4245L85.8 93.5126L85.8 93.6L85.8 93.6881L85.8 93.7755L85.8 93.8636L85.8 93.951L85.8 94.0384L85.8 94.1265L85.8 94.2146L85.8 94.302L85.8 94.3901L85.8 94.4775L85.8 94.5656L85.8 94.653L85.8 94.7411L85.8 94.8293L85.8 94.9166L85.8 95.0048L85.8 95.0921L85.8 95.1803L85.8 95.2684L85.8 95.3558L85.8 95.4439L85.8 95.5313L85.8 95.6194L85.8 95.7068L85.8 95.7949L85.8 95.8823L85.8 95.9704L85.8 96.0578L85.8 96.1459L85.8 96.2333L85.8 96.3214L85.8 96.4088L85.8 96.4969L85.8 96.5843L85.8 96.6716L85.8 96.759L85.8 96.8471L85.8 96.9345L85.8 97.0219L85.8 97.1092L85.8 97.1966L85.8 97.2839L85.8 97.3713L85.8 97.4587L85.8 97.546L85.8 97.6334L85.8 97.7207L85.8 97.8081L85.8 97.8947L85.8 97.982L85.8 98.0694L85.8 98.156L85.8 98.2433L85.8 98.3299L85.8 98.4173L85.8 98.5039L85.8 98.5904L85.8 98.677L85.8 98.7636L85.8 98.851L85.8 98.9375L85.8 99.0233L85.8 99.1099L85.8 99.1965L85.8 99.2831L85.8 99.3689L85.8 99.4555L85.8 99.5413L85.8 99.6278L85.8 99.7136L85.8 99.7994L85.8 99.8852L85.8 99.971L85.8 100.057L85.8 100.143L85.8 100.228L85.8 100.313L85.8 100.399L85.8 100.484L85.8 100.57L85.8 100.655L85.8 100.74L85.8 100.825L85.8 100.91L85.8 100.995L85.8 101.079L85.8 101.164L85.8 101.249L85.8 101.334L85.8 101.418L85.8 101.502L85.8 101.586L85.8 101.671L85.8 101.755L85.8 101.838L85.8 101.923L85.8 102.006L85.8 102.09L85.8 102.173L85.8 102.256L85.8 102.34L85.8 102.423L85.8 102.507L85.8 102.59L85.8 102.672L85.8 102.755L85.8 102.838L85.8 102.92L85.8 103.003L85.8 103.086L85.8 103.167L85.8 103.249L85.8 103.331L85.8 103.413L85.8 103.495L85.8 103.577L85.8 103.658L85.8 103.739L85.8 103.821L85.8 103.902L85.8 103.983L85.8 104.064L85.8 104.145L85.8 104.225L85.8 104.306L85.8 104.386L85.8 104.466L85.8 104.546L85.8 104.626L85.8 104.706L85.8 104.785L85.8 104.865L85.8 104.944L85.8 105.023L85.8 105.103L85.8 105.181L85.8 105.26L85.8 105.338L85.8 105.417L85.8 105.495L85.8 105.573L85.8 105.651L85.8 105.729L85.8 105.807L85.8 105.884L85.8 105.961L85.8 106.039L85.8 106.116L85.8 106.192L85.8 106.27L85.8 106.346L85.8 106.422L85.8 106.498L85.8 106.575L85.8 106.65L85.8 106.726L85.8 106.802L85.8 106.876L85.8 106.952L85.8 107.027L85.8 107.102L85.8 107.176L85.8 107.251L85.8 107.325L85.8 107.399L85.8 107.473L85.8 107.546L85.8 107.62L85.8 107.693L85.8 107.766L85.8 107.84L85.8 107.912L85.8 107.985L85.8 108.057L85.8 108.129L85.8 108.201L85.8 108.273L85.8 108.344L85.8 108.415L85.8 108.487L85.8 108.558L85.8 108.628L85.8 108.699L85.8 108.769L85.8 108.84L85.8 108.909L85.8 108.979L85.8 109.049L85.8 109.118L85.8 109.187L85.8 109.255L85.8 109.324L85.8 109.393L85.8 109.461L85.8 109.528L85.8 109.596L85.8 109.664L85.8 109.731L85.8 109.798L85.8 109.865L85.8 109.932L85.8 109.998L85.8 110.064L85.8 110.131L85.8 110.196L85.8 110.262L85.8 110.326L85.8 110.391L85.8 110.456L85.8 110.521L85.8 110.585L85.8 110.649L85.8 110.712L85.8 110.776L85.8 110.84L85.8 110.903L85.8 110.965L85.8 111.028L85.8 111.09L85.8 111.152L85.8 111.214L85.8 111.276L85.8 111.336L85.8 111.397L85.8 111.458L85.8 111.519L85.8 111.579L85.8 111.639L85.8 111.698L85.8 111.758L85.8 111.818L85.8 111.876L85.8 111.935L85.8 111.993L85.8 112.052L85.8 112.109L85.8 112.166L85.8 112.224L85.8 112.281L85.8 112.338L85.8 112.394L85.8 112.45L85.8 112.506L85.8 112.562L85.8 112.617L85.8 112.672L85.8 112.727L85.8 112.781L85.8 112.836L85.8 112.889L85.8 112.943L85.8 112.996L85.8 113.049L85.8 113.102L85.8 113.155L85.8 113.207L85.8 113.258L85.8 113.31L85.8 113.361L85.8 113.412L85.8 113.463L85.8 113.513L85.8 113.563L85.8 113.612L85.8 113.662L85.8 113.711L85.8 113.76L85.8 113.808L85.8 113.857L85.8 113.904L85.8 113.952L85.8 113.999L85.8 114.046L85.8 114.092L85.8 114.139L85.8 114.185L85.8 114.23L85.8 114.275L85.8 114.321L85.8 114.365L85.8 114.41L85.8 114.453L85.8 114.497L85.8 114.541L85.8 114.584L85.8 114.626L85.8 114.669L85.8 114.71L85.8 114.752L85.8 114.793L85.8 114.834L85.8 114.875L85.8 114.915L85.8 114.955L85.8 114.995L85.8 115.034L85.8 115.073L85.8 115.111L85.8 115.149L85.8 115.187L85.8 115.225L85.8 115.262L85.8 115.299L85.8 115.335L85.8 115.371L85.8 115.406L85.8 115.442L85.8 115.477L85.8 115.512L85.8 115.546L85.8 115.58L85.8 115.613L85.8 115.647L85.8 115.679L85.8 115.711L85.8 115.744L85.8 115.775L85.8 115.807L85.8 115.838L85.8 115.868L85.8 115.899L85.8 115.928L85.8 115.958L85.8 115.987L85.8 116.016L85.8 116.044L85.8 116.072L85.8 116.099L85.8 116.126L85.8 116.153L85.8 116.179L85.8 116.205L85.8 116.231L85.8 116.256L85.8 116.281L85.8 116.305L85.8 116.329L85.8 116.353L85.8 116.376L85.8 116.399L85.8 116.421L85.8 116.443L85.8 116.464L85.8 116.486L85.8 116.506L85.8 116.527L85.8 116.547L85.8 116.566L85.8 116.585L85.8 116.604L85.8 116.622L85.8 116.64L85.8 116.658L85.8 116.675L85.8 116.691L85.8 116.707L85.8 116.723L85.8 116.739L85.8 116.754L85.8 116.768L85.8 116.782L85.8 116.796L85.8 116.809L85.8 116.821L85.8 116.834L85.8 116.846L85.8 116.857L85.8 116.868L85.8 116.879L85.8 116.889L85.8 116.899L85.8 116.909L85.8 116.917L85.8 116.926L85.8 116.934L85.8 116.949L85.8 116.961L85.8 116.972L85.8 116.981L85.8 116.991L85.8 116.999C85.8 121.307 82.3079 124.8 78 124.8C73.6921 124.8 70.2 121.308 70.2 117L70.2 116.991L70.2 116.981L70.2 116.972L70.2 116.961L70.2 116.949L70.2 116.934L70.2 116.926L70.2 116.917L70.2 116.909L70.2 116.899L70.2 116.889L70.2 116.879L70.2 116.868L70.2 116.857L70.2 116.846L70.2 116.834L70.2 116.821L70.2 116.809L70.2 116.796L70.2 116.782L70.2 116.768L70.2 116.754L70.2 116.739L70.2 116.723L70.2 116.707L70.2 116.691L70.2 116.675L70.2 116.658L70.2 116.64L70.2 116.622L70.2 116.604L70.2 116.585L70.2 116.566L70.2 116.547L70.2 116.527L70.2 116.506L70.2 116.486L70.2 116.464L70.2 116.443L70.2 116.421L70.2 116.399L70.2 116.376L70.2 116.353L70.2 116.329L70.2 116.305L70.2 116.281L70.2 116.256L70.2 116.231L70.2 116.205L70.2 116.179L70.2 116.153L70.2 116.126L70.2 116.099L70.2 116.072L70.2 116.044L70.2 116.016L70.2 115.987L70.2 115.958L70.2 115.928L70.2 115.899L70.2 115.868L70.2 115.838L70.2 115.807L70.2 115.775L70.2 115.744L70.2 115.711L70.2 115.679L70.2 115.647L70.2 115.613L70.2 115.58L70.2 115.546L70.2 115.512L70.2 115.477L70.2 115.442L70.2 115.406L70.2 115.371L70.2 115.335L70.2 115.299L70.2 115.262L70.2 115.225L70.2 115.187L70.2 115.149L70.2 115.111L70.2 115.073L70.2 115.034L70.2 114.995L70.2 114.955L70.2 114.915L70.2 114.875L70.2 114.834L70.2 114.793L70.2 114.752L70.2 114.71L70.2 114.669L70.2 114.626L70.2 114.584L70.2 114.541L70.2 114.497L70.2 114.453L70.2 114.41L70.2 114.365L70.2 114.321L70.2 114.275L70.2 114.23L70.2 114.185L70.2 114.139L70.2 114.092L70.2 114.046L70.2 113.999L70.2 113.952L70.2 113.904L70.2 113.857L70.2 113.808L70.2 113.76L70.2 113.711L70.2 113.662L70.2 113.612L70.2 113.563L70.2 113.513L70.2 113.463L70.2 113.412L70.2 113.361L70.2 113.31L70.2 113.258L70.2 113.207L70.2 113.155L70.2 113.102L70.2 113.049L70.2 112.996L70.2 112.943L70.2 112.889L70.2 112.836L70.2 112.781L70.2 112.727L70.2 112.672L70.2 112.617L70.2 112.562L70.2 112.506L70.2 112.45L70.2 112.394L70.2 112.338L70.2 112.281L70.2 112.224L70.2 112.166L70.2 112.109L70.2 112.052L70.2 111.993L70.2 111.935L70.2 111.876L70.2 111.818L70.2 111.758L70.2 111.698L70.2 111.639L70.2 111.579L70.2 111.519L70.2 111.458L70.2 111.397L70.2 111.336L70.2 111.276L70.2 111.214L70.2 111.152L70.2 111.09L70.2 111.028L70.2 110.965L70.2 110.903L70.2 110.84L70.2 110.776L70.2 110.712L70.2 110.649L70.2 110.585L70.2 110.521L70.2 110.456L70.2 110.391L70.2 110.326L70.2 110.262L70.2 110.196L70.2 110.131L70.2 110.064L70.2 109.998L70.2 109.932L70.2 109.865L70.2 109.798L70.2 109.731L70.2 109.664L70.2 109.596L70.2 109.528L70.2 109.461L70.2 109.393L70.2 109.324L70.2 109.255L70.2 109.187L70.2 109.118L70.2 109.049L70.2 108.979L70.2 108.909L70.2 108.84L70.2 108.769L70.2 108.699L70.2 108.628L70.2 108.558L70.2 108.487L70.2 108.415L70.2 108.344L70.2 108.273L70.2 108.201L70.2 108.129L70.2 108.057L70.2 107.985L70.2 107.912L70.2 107.84L70.2 107.766L70.2 107.693L70.2 107.62L70.2 107.546L70.2 107.473L70.2 107.399L70.2 107.325L70.2 107.251L70.2 107.176L70.2 107.102L70.2 107.027L70.2 106.952L70.2 106.876L70.2 106.802L70.2 106.726L70.2 106.65L70.2 106.575L70.2 106.498L70.2 106.422L70.2 106.346L70.2 106.27L70.2 106.192L70.2 106.116L70.2 106.039L70.2 105.961L70.2 105.884L70.2 105.807L70.2 105.729L70.2 105.651L70.2 105.573L70.2 105.495L70.2 105.417L70.2 105.338L70.2 105.26L70.2 105.181L70.2 105.103L70.2 105.023L70.2 104.944L70.2 104.865L70.2 104.785L70.2 104.706L70.2 104.626L70.2 104.546L70.2 104.466L70.2 104.386L70.2 104.306L70.2 104.225L70.2 104.145L70.2 104.064L70.2 103.983L70.2 103.902L70.2 103.821L70.2 103.739L70.2 103.658L70.2 103.577L70.2 103.495L70.2 103.413L70.2 103.331L70.2 103.249L70.2 103.167L70.2 103.086L70.2 103.003L70.2 102.92L70.2 102.838L70.2 102.755L70.2 102.672L70.2 102.59L70.2 102.507L70.2 102.423L70.2 102.34L70.2 102.256L70.2 102.173L70.2 102.09L70.2 102.006L70.2 101.923L70.2 101.838L70.2 101.755L70.2 101.671L70.2 101.586L70.2 101.502L70.2 101.418L70.2 101.334L70.2 101.249L70.2 101.164L70.2 101.079L70.2 100.995L70.2 100.91L70.2 100.825L70.2 100.74L70.2 100.655L70.2 100.57L70.2 100.484L70.2 100.399L70.2 100.313L70.2 100.228L70.2 100.143L70.2 100.057L70.2 99.971L70.2 99.8852L70.2 99.7994L70.2 99.7136L70.2 99.6278L70.2 99.5413L70.2 99.4555L70.2 99.3689L70.2 99.2831L70.2 99.1965L70.2 99.1099L70.2 99.0233L70.2 98.9375L70.2 98.851L70.2 98.7636L70.2 98.677L70.2 98.5904L70.2 98.5039L70.2 98.4173L70.2 98.3299L70.2 98.2433L70.2 98.156L70.2 98.0694L70.2 97.982L70.2 97.8947L70.2 97.8081L70.2 97.7207L70.2 97.6334L70.2 97.546L70.2 97.4587L70.2 97.3713L70.2 97.2839L70.2 97.1966L70.2 97.1092L70.2 97.0219L70.2 96.9345L70.2 96.8471L70.2 96.759L70.2 96.6716L70.2 96.5843L70.2 96.4969L70.2 96.4088L70.2 96.3214L70.2 96.2333L70.2 96.1459L70.2 96.0578L70.2 95.9704L70.2 95.8823L70.2 95.7949L70.2 95.7068L70.2 95.6194L70.2 95.5313L70.2 95.4439L70.2 95.3558L70.2 95.2684L70.2 95.1803L70.2 95.0921L70.2 95.0048L70.2 94.9166L70.2 94.8293L70.2 94.7411L70.2 94.653L70.2 94.5656L70.2 94.4775L70.2 94.3901L70.2 94.302L70.2 94.2146L70.2 94.1265L70.2 94.0384L70.2 93.951L70.2 93.8636L70.2 93.7755L70.2 93.6881L70.2 93.6L70.2 93.5126L70.2 93.4245L70.2 93.3371L70.2 93.2498L70.2 93.1616L70.2 93.0743L70.2 92.9869L70.2 92.8996L70.2 92.8122L70.2 92.7248L70.2 92.6367L70.2 92.5493L70.2 92.462L70.2 92.3746L70.2 92.288L70.2 92.2007L70.2 92.1133L70.2 92.026L70.2 91.9394L70.2 91.852L70.2 91.7647L70.2 91.6781L70.2 91.5907L70.2 91.5041L70.2 91.4176L70.2 91.3302L70.2 91.2436L70.2 91.157L70.2 91.0705L70.2 90.9839L70.2 90.8973L70.2 90.8107L70.2 90.7241L70.2 90.6383L70.2 90.5518L70.2 90.4652L70.2 90.3794L70.2 90.2936L70.2 90.207L70.2 90.1212L70.2 90.0354L70.2 89.9496L70.2 89.8638L70.2 89.778L70.2 89.6922L70.2 89.6072L70.2 89.5214L70.2 89.4364L70.2 89.3506L70.2 89.2655L70.2 89.1805L70.2 89.0955L70.2 89.0105L70.2 88.9255L70.2 88.8404L70.2 88.7562L70.2 88.6712L70.2 88.5869L70.2 88.5019L70.2 88.4177L70.2 88.3334L70.2 88.2492L70.2 88.1657L70.2 88.0815L70.2 87.9973L70.2 87.9138L70.2 87.8303L70.2 87.7469L70.2 87.6626L70.2 87.58L70.2 87.4965L70.2 87.413L70.2 87.3304L70.2 87.2469L70.2 87.1642L70.2 87.0815L70.2 86.9989L70.2 86.917L70.2 86.8343L70.2 86.7516L70.2 86.6697L70.2 86.5878L70.2 86.5059L70.2 86.424L70.2 86.3421L70.2 86.261L70.2 86.1799L70.2 86.098L70.2 86.0168L70.2 85.9357L70.2 85.8554L70.2 85.7743L70.2 85.6939L70.2 85.6136L70.2 85.5332L70.2 85.4529L70.2 85.3726L70.2 85.2922L70.2 85.2127L70.2 85.1331L70.2 85.0535L70.2 84.974L70.2 84.8952L70.2 84.8156L70.2 84.7369L70.2 84.6581L70.2 84.5793L70.2 84.5013L70.2 84.4225L70.2 84.3445L70.2 84.2665L70.2 84.1885L70.2 84.1105L70.2 84.0333L70.2 83.9561L70.2 83.8789L70.2 83.8016L70.2 83.7244L70.2 83.648L70.2 83.5715L70.2 83.5411L70.2 83.5099L70.2 83.4795L70.2 83.4483L70.2 83.4179L70.2 83.3867L70.2 83.3555L70.2 83.3243L70.2 83.2931L70.2 83.2619L70.2 83.2307L70.2 83.1995L70.2 83.1683L70.2 83.1371L70.2 83.1051L70.2 83.0739L70.2 83.0419L70.2 83.0099L70.2 82.9787L70.2 82.9468L70.2 82.9148L70.2 82.8828L70.2 82.8508L70.2 82.8188L70.2 82.7869L70.2 82.7549L70.2 82.7229L70.2 82.6901L70.2 82.6582L70.2 82.6254L70.2 82.5934L70.2 82.5607L70.2 82.5279L70.2 82.4959L70.2 82.4632L70.2 82.4304L70.2 82.3976L70.2 82.3649L70.2 82.3321L70.2 82.2994L70.2 82.2666L70.2 82.2331L70.2 82.2003L70.2 82.1675L70.2 82.134L70.2 82.1012L70.2 82.0677L70.2 82.0349L70.2 82.0014L70.2 81.9679L70.2 81.9351L70.2 81.9016L70.2 81.868L70.2 81.8345L70.2 81.8009L70.2 81.7674L70.2 81.7339L70.2 81.7003L70.2 81.6668L70.2 81.6325L70.2 81.5989L70.2 81.5654L70.2 81.5318L70.2 81.4975L70.2 81.464L70.2 81.4297L70.2 81.3961L70.2 81.3618L70.2 81.3275L70.2 81.2939L70.2 81.2596L70.2 81.2253L70.2 81.1918L70.2 81.1574L70.2 81.1231L70.2 81.0888L70.2 81.0545L70.2 81.0202L70.2 80.9858L70.2 80.9515L70.2 80.9172L70.2 80.8829L70.2 80.8486L70.2 80.8135L70.2 80.7791L70.2 80.7448L70.2 80.7105L70.2 80.6754L70.2 80.6411L70.2 80.6068L70.2 80.5717L70.2 80.5373L70.2 80.5022L70.2 80.4679L70.2 80.4328L70.2 80.3985L70.2 80.3634L70.2 80.3291L70.2 80.294L70.2 80.2589L70.2 80.2246L70.2 80.1895L70.2 80.1544L70.2 80.12L70.2 80.0849L70.2 80.0498L70.2 80.0147L70.2 79.9804L70.2 79.9453L70.2 79.9102L70.2 79.8751L70.2 79.84L70.2 79.8049L70.2 79.7706L70.2 79.7355L70.2 79.7004L70.2 79.6653L70.2 79.6302L70.2 79.5951L70.2 79.56L70.2 79.5249L70.2 79.4898L70.2 79.4547L70.2 79.4196L70.2 79.3845L70.2 79.3494L70.2 79.3143L70.2 79.2792L70.2 79.2441L70.2 79.209L70.2 79.1739L70.2 79.1388L70.2 79.1037L70.2 79.0686L70.2 79.0335L70.2 78.9984L70.2 78.9633L70.2 78.9282L70.2 78.8931L70.2 78.858L70.2 78.8229L70.2 78.787L70.2 78.7519L70.2 78.7168L70.2 78.6817L70.2 78.6466L70.2 78.6115L70.2 78.5764L70.2 78.5413L70.2 78.5062L70.2 78.4711L70.2 78.4368L70.2 78.4017L70.2 78.3666L70.2 78.3315L70.2 78.2964L70.2 78.2613L70.2 78.2262L70.2 78.1911L70.2 78.156L70.2 78.1209L70.2 78.0866L70.2 78.0515L70.2 78.0164L70.2 77.9813L70.2 77.947L70.2 77.9119L70.2 77.8768L70.2 77.8417L70.2 77.8073L70.2 77.7722L70.2 77.7371L70.2 77.7028L70.2 77.6677L70.2 77.6334L70.2 77.5983L70.2 77.564L70.2 77.5289L70.2 77.4946L70.2 77.4595L70.2 77.4251L70.2 77.3908L70.2 77.3557L70.2 77.3214L70.2 77.2871L70.2 77.252L70.2 77.2177L70.2 77.1833L70.2 77.149L70.2 77.1147L70.2 77.0804L70.2 77.0461L70.2 77.0117L70.2 76.9774L70.2 76.9431L70.2 76.9088L70.2 76.8745L70.2 76.8401L70.2 76.8066L70.2 76.7723L70.2 76.738L70.2 76.7036L70.2 76.6701L70.2 76.6358L70.2 76.6022L70.2 76.5679L70.2 76.5344L70.2 76.5001L70.2 76.4665L70.2 76.433L70.2 76.3994L70.2 76.3651L70.2 76.3316L70.2 76.298L70.2 76.2645L70.2 76.231L70.2 76.1974L70.2 76.1639L70.2 76.1303L70.2 76.0976L70.2 76.064L70.2 76.0305L70.2 75.9977L70.2 75.9642L70.2 75.9307L70.2 75.8979L70.2 75.8651L70.2 75.8316L70.2 75.7988L70.2 75.7661L70.2 75.7333L70.2 75.7006L70.2 75.667L70.2 75.6343L70.2 75.6023L70.2 75.5695L70.2 75.5368L70.2 75.504L70.2 75.472L70.2 75.4393L70.2 75.4065L70.2 75.3745L70.2 75.3425L70.2 75.3098L70.2 75.2778L70.2 75.2458L70.2 75.2138L70.2 75.1819L70.2 75.1499L70.2 75.1179L70.2 75.0859L70.2 75.0539L70.2 75.0227L70.2 74.9908L70.2 74.9588L70.2 74.9276L70.2 74.8964L70.2 74.8644L70.2 74.8332L70.2 74.802L70.2 74.7708L70.2 74.7396L70.2 74.7084L70.2 74.6772L70.2 74.646L70.2 74.6156L70.2 74.5844L70.2 74.554L70.2 74.5228L70.2 74.4923L70.2 74.4619L70.2 74.4307L70.2 74.4003L70.2 74.3699L70.2 74.3402L70.2 74.3098L70.2 74.2794L70.2 74.249L70.2 74.2193L70.2 74.1889L70.2 74.1593L70.2 74.1296L70.2 74.1L70.2 74.0704L70.2 74.0407L70.2 74.0111L70.2 73.9814L70.2 73.9518L70.2 73.9229L70.2 73.8933L70.2 73.8644L70.2 73.8356L70.2 73.8059L70.2 73.7771L70.2 73.7482L70.2 73.7194L70.2 73.6913L70.2 73.6624L70.2 73.6336L70.2 73.6055L70.2 73.5766L70.2 73.5485L70.2 73.5205L70.2 73.4924L70.2 73.4643L70.2 73.4362L70.2 73.4081L70.2 73.3808L70.2 73.3528L70.2 73.3255L70.2 73.2974L70.2 73.2701L70.2 73.2428L70.2 73.2155L70.2 73.1882L70.2 73.1617L70.2 73.1344L70.2 73.1078L70.2 73.0805L70.2 73.054L70.2 73.0275L70.2 73.001L70.2 72.9745L70.2 72.9479L70.2 72.9214L70.2 72.8957L70.2 72.8692L70.2 72.8434L70.2 72.8177L70.2 72.7919L70.2 72.7662L70.2 72.7405L70.2 72.7147L70.2 72.6898L70.2 72.664L70.2 72.6391L70.2 72.6141L70.2 72.5891L70.2 72.5642L70.2 72.5392L70.2 72.5143L70.2 72.4901L70.2 72.4651L70.2 72.4409L70.2 72.4168L70.2 72.3926L70.2 72.3684L70.2 72.3442L70.2 72.3208L70.2 72.2966L70.2 72.2732L70.2 72.2498L70.2 72.2264L70.2 72.203L70.2 72.1796L70.2 72.1562L70.2 72.1336L70.2 72.1102L70.2 72.0876L70.2 72.065L70.2 72.0424L70.2 72.0197L70.2 71.9979L70.2 71.9753L70.2 71.9534L70.2 71.9308L70.2 71.909L70.2 71.8871L70.2 71.8661L70.2 71.8442L70.2 71.8232L70.2 71.8013L70.2 71.7803L70.2 71.7592L70.2 71.7382L70.2 71.7171L70.2 71.6968L70.2 71.6758L70.2 71.6555L70.2 71.6352L70.2 71.6149L70.2 71.5946L70.2 71.5751L70.2 71.5549L70.2 71.5354L70.2 71.5159L70.2 71.4964L70.2 71.4769L70.2 71.4574L70.2 71.4386L70.2 71.4191L70.2 71.4004L70.2 71.3817L70.2 71.363L70.2 71.3443L70.2 71.3263L70.2 71.3076L70.2 71.2897L70.2 71.2717L70.2 71.2538L70.2 71.2366L70.2 71.2187L70.2 71.2015L70.2 71.1836L70.2 71.1664L70.2 71.1493L70.2 71.1329L70.2 71.1157L70.2 71.0993L70.2 71.083L70.2 71.0666L70.2 71.0502L70.2 71.0338L70.2 71.0182L70.2 71.0018L70.2 70.9862L70.2 70.9706L70.2 70.9558L70.2 70.9402L70.2 70.9254L70.2 70.9098L70.2 70.895L70.2 70.8809L70.2 70.8661L70.2 70.8513L70.2 70.8373L70.2 70.8232L70.2 70.8092L70.2 70.7951L70.2 70.7819L70.2 70.7678L70.2 70.7546L70.2 70.7413L70.2 70.7281L70.2 70.7156L70.2 70.7023L70.2 70.6898L70.2 70.6774L70.2 70.6649L70.2 70.6524L70.2 70.6407L70.2 70.629L70.2 70.6173L70.2 70.6056L70.2 70.5939L70.2 70.5822L70.2 70.5713L70.2 70.5604L70.2 70.5494L70.2 70.5385L70.2 70.5284L70.2 70.5182L70.2 70.5073L70.2 70.498L70.2 70.4878L70.2 70.4777L70.2 70.4683L70.2 70.459L70.2 70.4496L70.2 70.4402L70.2 70.4317L70.2 70.4231L70.2 70.4145L70.2 70.4059L70.2 70.3973L70.2 70.3895L70.2 70.381L70.2 70.3732L70.2 70.3583L70.2 70.3443L70.2 70.3303L70.2 70.317L70.2 70.3045L70.2 70.2928L70.2 70.2819L70.2 70.271L70.2 70.2616L70.2 70.2523L70.2 70.2406L70.2 70.2328L70.2 70.2234L70.2 70.2156L70.2 70.2062C70.2 65.8983 73.6921 62.4 78 62.4Z"
              fill-rule="evenodd"/>
    </symbol>
    <symbol viewBox="0 0 156 156" id="instagram_icon">
        <path d="M45.7833 0.957284C33.0858 1.53019 22.0803 4.63456 13.1937 13.4837C4.27592 22.3793 1.2101 33.4284 0.635766 45.9937C0.278744 53.8365 -1.80893 113.086 4.24488 128.625C8.32733 139.107 16.3678 147.167 26.9465 151.263C31.8827 153.183 37.5175 154.483 45.7833 154.862C114.898 157.99 140.518 156.287 151.321 128.625C153.238 123.701 154.558 118.071 154.923 109.826C158.081 40.5342 154.411 25.5149 142.365 13.4837C132.811 3.95323 121.572 -2.53437 45.7833 0.957284ZM46.4196 140.926C38.8523 140.586 34.7467 139.325 32.0069 138.264C25.1149 135.585 19.9381 130.43 17.276 123.578C12.6658 111.772 14.1948 55.6959 14.6062 46.6222C15.0098 37.7342 16.8103 29.6113 23.0815 23.3403C30.8428 15.5982 40.8703 11.8039 109.146 14.8853C118.056 15.2878 126.198 17.0847 132.485 23.3403C140.246 31.0823 144.096 41.187 140.96 109.201C140.619 116.749 139.354 120.845 138.29 123.578C131.266 141.579 115.107 144.077 46.4196 140.926ZM109.899 36.5789C109.899 41.7042 114.067 45.8719 119.213 45.8719C124.359 45.8719 128.534 41.7042 128.534 36.5789C128.534 31.4537 124.359 27.2898 119.213 27.2898C114.067 27.2898 109.899 31.4537 109.899 36.5789ZM37.9288 77.9058C37.9288 99.8623 55.7721 117.664 77.7831 117.664C99.7942 117.664 117.637 99.8623 117.637 77.9058C117.637 55.9494 99.7942 38.1595 77.7831 38.1595C55.7721 38.1595 37.9288 55.9494 37.9288 77.9058ZM51.9147 77.9058C51.9147 63.6605 63.4946 52.1027 77.7831 52.1027C92.0717 52.1027 103.652 63.6605 103.652 77.9058C103.652 92.159 92.0717 103.72 77.7831 103.72C63.4946 103.72 51.9147 92.159 51.9147 77.9058Z"
              fill-rule="evenodd"/>
    </symbol>
    <symbol viewBox="0 0 156 156" id="facebook_icon">
        <path d="M0 31.2C0 13.9687 13.9687 0 31.2 0L124.8 0C142.031 0 156 13.9687 156 31.2L156 124.8C156 142.031 142.031 156 124.8 156L31.2 156C13.9687 156 0 142.031 0 124.8L0 31.2ZM31.2 15.6C22.5844 15.6 15.6 22.5844 15.6 31.2L15.6 124.8C15.6 133.416 22.5844 140.4 31.2 140.4L78 140.4L78 85.8L70.2 85.8C65.8921 85.8 62.4 82.3079 62.4 78C62.4 73.6921 65.8921 70.2 70.2 70.2L78 70.2L78 58.5C78 43.4226 90.2226 31.2 105.3 31.2L109.98 31.2C114.288 31.2 117.78 34.6922 117.78 39C117.78 43.3078 114.288 46.8 109.98 46.8L105.3 46.8C98.8385 46.8 93.6 52.0382 93.6 58.5L93.6 70.2L109.98 70.2C114.288 70.2 117.78 73.6921 117.78 78C117.78 82.3079 114.288 85.8 109.98 85.8L93.6 85.8L93.6 140.4L124.8 140.4C133.416 140.4 140.4 133.416 140.4 124.8L140.4 31.2C140.4 22.5844 133.416 15.6 124.8 15.6L31.2 15.6Z"
              fill-rule="evenodd"/>
    </symbol>
</svg>

